# xmcd
#
# Track frame offsets:
#	150
#	12779
#	24769
#	36900
#	50607
#	62502
#	73208
#	85399
#	97445
#	109969
#	130548
#	143207
#	156325
#	166859
#	181658
#	196480
#	209351
#	229978
#	242082
#	256218
#
# Disc length: 3618 seconds
#
# Revision: 1
# Processed by: cddbd v1.5.2PL0 Copyright (c) Steve Scherf et al.
# Submitted via: audiograbber 1.83.01
#
DISCID=190e2014
DTITLE=Various Artist - Stax - Soulsville, USA [CD2]
DYEAR=2017
DGENRE=R&B
TTITLE0=Albert King - Born Under a Bad Sign
TTITLE1=Sam and Dave - Soul Man
TTITLE2=Otis Redding - (Sittin On') The Dock of the Bay
TTITLE3=Eddie Floyd - Big Bird
TTITLE4=Ollie and the Nightingales - I Got a Sure Thing
TTITLE5=Booker T and the MGs - Soul Limbo
TTITLE6=Linda Lyndell - What a Man
TTITLE7=Judy Clay and William Bell - Private Number
TTITLE8=Eddie Floyd - I've Never Found a Girl
TTITLE9=The Staple Singers - The Weight
TTITLE10=Johnnie Taylor - Who's Making Love
TTITLE11=Carla Thomas - I Like What You're Doing
TTITLE12=William Bell - I Forgot to Be Your Lover
TTITLE13=Booker T and the MGs - Time is Tight
TTITLE14=Rufus Thomas - Do the Funky Chicken
TTITLE15=The Emotions - So I Can Love You
TTITLE16=Isaac Hayes - Walk On By
TTITLE17=Johnnie Taylor and Carla Thomas - Just Keep on Loving Me
TTITLE18=The Staple Singers - Heavy Makes You Happy
TTITLE19=Rufus Thomas - Push and Pull (pt 1)
EXTD=
EXTT0=
EXTT1=
EXTT2=
EXTT3=
EXTT4=
EXTT5=
EXTT6=
EXTT7=
EXTT8=
EXTT9=
EXTT10=
EXTT11=
EXTT12=
EXTT13=
EXTT14=
EXTT15=
EXTT16=
EXTT17=
EXTT18=
EXTT19=
PLAYORDER=
